<svg width="16.000000" height="16.000000" viewBox="0 0 16 16" fill="none" xmlns="http://www.w3.org/2000/svg" xmlns:xlink="http://www.w3.org/1999/xlink">
	<desc>
			Created with Pixso.
	</desc>
	<defs/>
	<path id="Vector" d="M4.69 8C4.87 8 5.05 8.06 5.19 8.2L8 10.98L10.8 8.2C11.07 7.93 11.52 7.93 11.79 8.2C12.06 8.47 12.06 8.91 11.79 9.18L8.49 12.46C8.22 12.73 7.77 12.73 7.5 12.46L4.2 9.18C3.93 8.91 3.93 8.47 4.2 8.2C4.34 8.06 4.52 8 4.69 8Z" fill="#FFFFFF" fill-opacity="1.000000" fill-rule="nonzero"/>
	<path id="Vector" d="M4.69 3.33C4.87 3.33 5.05 3.39 5.19 3.53L8 6.32L10.8 3.53C11.07 3.26 11.52 3.26 11.79 3.53C12.06 3.8 12.06 4.25 11.79 4.52L8.49 7.79C8.22 8.06 7.77 8.06 7.5 7.79L4.2 4.52C3.93 4.25 3.93 3.8 4.2 3.53C4.34 3.39 4.52 3.33 4.69 3.33Z" fill="#FFFFFF" fill-opacity="1.000000" fill-rule="nonzero"/>
	<g opacity="0.000000"/>
</svg>
