<svg width="24.000000" height="24.000000" viewBox="0 0 24 24" fill="none" xmlns="http://www.w3.org/2000/svg" xmlns:xlink="http://www.w3.org/1999/xlink">
	<desc>
			Created with Pixso.
	</desc>
	<defs/>
	<rect id="vuesax/bulk/sun" width="24.000000" height="24.000000" fill="#FFFFFF" fill-opacity="0"/>
	<g opacity="0.400000">
		<path id="Vector" d="M19 12C19 15.86 15.86 19 12 19C8.13 19 5 15.86 5 12C5 8.13 8.13 5 12 5C15.86 5 19 8.13 19 12Z" fill="#FFFFFF" fill-opacity="0.600000" fill-rule="evenodd"/>
	</g>
	<path id="Vector" d="M12 22.96C11.45 22.96 11 22.55 11 22L11 21.92C11 21.37 11.45 20.92 12 20.92C12.55 20.92 13 21.37 13 21.92C13 22.47 12.55 22.96 12 22.96ZM19.14 20.14C18.87 20.14 18.62 20.04 18.43 19.85L18.29 19.71C17.91 19.33 17.91 18.7 18.29 18.31C18.68 17.92 19.31 17.92 19.7 18.31L19.84 18.44C20.23 18.83 20.23 19.45 19.84 19.85C19.65 20.04 19.4 20.14 19.14 20.14ZM4.85 20.14C4.59 20.14 4.34 20.04 4.15 19.85C3.76 19.45 3.76 18.83 4.15 18.44L4.28 18.31C4.67 17.92 5.3 17.92 5.68 18.31C6.07 18.7 6.07 19.33 5.68 19.71L5.56 19.85C5.37 20.04 5.1 20.14 4.85 20.14ZM22 13L21.92 13C21.37 13 20.92 12.55 20.92 12C20.92 11.45 21.37 11 21.92 11C22.47 11 22.96 11.45 22.96 12C22.96 12.55 22.55 13 22 13ZM2.07 13L2 13C1.44 13 1 12.55 1 12C1 11.45 1.44 11 2 11C2.55 11 3.04 11.45 3.04 12C3.04 12.55 2.63 13 2.07 13ZM19.01 5.99C18.75 5.99 18.5 5.89 18.29 5.7C17.91 5.31 17.91 4.67 18.29 4.28L18.43 4.16C18.81 3.77 19.45 3.77 19.84 4.16C20.23 4.55 20.23 5.17 19.84 5.57L19.7 5.7C19.52 5.89 19.27 5.99 19.01 5.99ZM4.98 5.99C4.72 5.99 4.47 5.89 4.28 5.7L4.15 5.56C3.76 5.17 3.76 4.53 4.15 4.14C4.54 3.75 5.17 3.75 5.56 4.14L5.68 4.28C6.07 4.67 6.07 5.3 5.68 5.69C5.5 5.89 5.23 5.99 4.98 5.99ZM12 3.03C11.45 3.03 11 2.63 11 2.08L11 2C11 1.45 11.45 1 12 1C12.55 1 13 1.45 13 2C13 2.55 12.55 3.03 12 3.03Z" fill="#FFFFFF" fill-opacity="0.600000" fill-rule="nonzero"/>
	<g opacity="0.000000"/>
</svg>
