<svg width="36.000000" height="36.000000" viewBox="0 0 36 36" fill="none" xmlns="http://www.w3.org/2000/svg" xmlns:xlink="http://www.w3.org/1999/xlink">
	<desc>
			Created with Pixso.
	</desc>
	<defs/>
	<rect id="vuesax/bulk/menu" width="36.000000" height="36.000000" fill="#FFFFFF" fill-opacity="0"/>
	<g opacity="0.400000">
		<path id="Vector" d="M24.28 3L11.71 3C6.25 3 3 6.25 3 11.71L3 24.27C3 29.74 6.25 33 11.71 33L24.27 33C29.73 33 32.98 29.74 32.98 24.28L32.98 11.71C33 6.25 29.74 3 24.28 3Z" fill="#FFFFFF" fill-opacity="0.200000" fill-rule="nonzero"/>
	</g>
	<path id="Vector" d="M25.5 12.37L10.5 12.37C9.88 12.37 9.37 11.86 9.37 11.25C9.37 10.63 9.88 10.12 10.5 10.12L25.5 10.12C26.11 10.12 26.62 10.63 26.62 11.25C26.62 11.86 26.11 12.37 25.5 12.37Z" fill="#FFFFFF" fill-opacity="0.200000" fill-rule="nonzero"/>
	<path id="Vector" d="M25.5 19.12L10.5 19.12C9.88 19.12 9.37 18.61 9.37 18C9.37 17.38 9.88 16.87 10.5 16.87L25.5 16.87C26.11 16.87 26.62 17.38 26.62 18C26.62 18.61 26.11 19.12 25.5 19.12Z" fill="#FFFFFF" fill-opacity="0.200000" fill-rule="nonzero"/>
	<path id="Vector" d="M25.5 25.87L10.5 25.87C9.88 25.87 9.37 25.36 9.37 24.75C9.37 24.13 9.88 23.62 10.5 23.62L25.5 23.62C26.11 23.62 26.62 24.13 26.62 24.75C26.62 25.36 26.11 25.87 25.5 25.87Z" fill="#FFFFFF" fill-opacity="0.200000" fill-rule="nonzero"/>
	<g opacity="0.000000"/>
</svg>
