<svg aria-hidden="true" style="position: absolute; width: 0; height: 0; overflow: hidden;" version="1.1" xmlns="http://www.w3.org/2000/svg" xmlns:xlink="http://www.w3.org/1999/xlink">
<defs>
<symbol id="arrows-down" viewBox="0 0 32 32">
<path fill="#fff" style="fill: var(--color1, #fff)" d="M9.38 16c0.36 0 0.72 0.12 1 0.4l5.62 5.56 5.6-5.56c0.54-0.54 1.44-0.54 1.98 0s0.54 1.42 0 1.96l-6.6 6.56c-0.54 0.54-1.44 0.54-1.98 0l-6.6-6.56c-0.54-0.54-0.54-1.42 0-1.96 0.28-0.28 0.64-0.4 0.98-0.4z"></path>
<path fill="#fff" style="fill: var(--color1, #fff)" d="M9.38 6.66c0.36 0 0.72 0.12 1 0.4l5.62 5.58 5.6-5.58c0.54-0.54 1.44-0.54 1.98 0s0.54 1.44 0 1.98l-6.6 6.54c-0.54 0.54-1.44 0.54-1.98 0l-6.6-6.54c-0.54-0.54-0.54-1.44 0-1.98 0.28-0.28 0.64-0.4 0.98-0.4z"></path>
</symbol>
<symbol id="call-calling" viewBox="0 0 32 32">
<path fill="#fff" style="fill: var(--color1, #fff)" d="M23.48 14.32c-0.56 0-1.020-0.46-1.020-1.020 0-0.5-0.5-1.52-1.32-2.42-0.82-0.86-1.7-1.38-2.46-1.38-0.56 0-1.020-0.46-1.020-1.020s0.46-1.020 1.020-1.020c1.34 0 2.74 0.72 3.96 2 1.16 1.22 1.88 2.72 1.88 3.82 0 0.58-0.46 1.040-1.040 1.040z"></path>
<path fill="#fff" style="fill: var(--color1, #fff)" d="M28.3 14.32c-0.58 0-1.020-0.46-1.020-1.020 0-4.74-3.86-8.58-8.58-8.58-0.58 0-1.020-0.46-1.020-1.020s0.44-1.040 1-1.040c5.88 0 10.64 4.78 10.64 10.64 0 0.56-0.46 1.020-1.020 1.020z"></path>
<path fill="#fff" style="fill: var(--color1, #fff)" opacity="0.4" d="M15.7 18.94l-4.34 4.36c-0.48-0.42-0.96-0.86-1.42-1.32-1.36-1.38-2.6-2.84-3.7-4.36s-1.98-3.040-2.62-4.54c-0.64-1.52-0.96-2.98-0.96-4.36 0-0.92 0.16-1.78 0.48-2.58 0.32-0.82 0.82-1.56 1.54-2.22 0.84-0.84 1.78-1.26 2.76-1.26 0.38 0 0.76 0.080 1.080 0.24 0.36 0.16 0.66 0.4 0.9 0.74l3.1 4.36c0.24 0.34 0.4 0.64 0.52 0.94 0.12 0.28 0.2 0.56 0.2 0.82 0 0.32-0.1 0.64-0.3 0.94-0.16 0.3-0.42 0.62-0.74 0.94l-1 1.060c-0.16 0.14-0.22 0.32-0.22 0.54 0 0.1 0.020 0.2 0.040 0.3 0.040 0.1 0.080 0.18 0.1 0.26 0.24 0.44 0.66 1.020 1.24 1.72 0.6 0.68 1.24 1.4 1.94 2.1 0.48 0.46 0.94 0.92 1.4 1.32z"></path>
<path fill="#fff" style="fill: var(--color1, #fff)" d="M29.28 24.42c0 0.38-0.060 0.76-0.2 1.14-0.040 0.1-0.080 0.22-0.12 0.32-0.24 0.48-0.52 0.94-0.92 1.36-0.64 0.72-1.36 1.24-2.18 1.58-0.020 0-0.020 0-0.040 0-0.78 0.32-1.64 0.5-2.56 0.5-1.36 0-2.82-0.32-4.34-0.98-1.54-0.64-3.080-1.52-4.6-2.64-0.52-0.38-1.040-0.76-1.52-1.18l4.36-4.36c0.36 0.28 0.7 0.5 0.98 0.64 0.060 0.020 0.14 0.060 0.24 0.1s0.22 0.060 0.34 0.060c0.22 0 0.4-0.080 0.54-0.22l1.020-1c0.32-0.34 0.64-0.6 0.96-0.76 0.3-0.18 0.6-0.28 0.94-0.28 0.26 0 0.52 0.060 0.82 0.18 0.28 0.12 0.6 0.3 0.92 0.52l4.42 3.14c0.34 0.24 0.58 0.52 0.74 0.84 0.12 0.34 0.2 0.68 0.2 1.040z"></path>
</symbol>
<symbol id="menu-toggle" viewBox="0 0 32 32">
<path fill="#fff" style="fill: var(--color1, #fff)" opacity="0.08000000000000002" d="M21.582 2.667h-11.173c-4.853 0-7.742 2.889-7.742 7.742v11.164c0 4.862 2.889 7.76 7.742 7.76h11.164c4.853 0 7.742-2.898 7.742-7.751v-11.173c0.018-4.853-2.88-7.742-7.733-7.742z"></path>
<path fill="#fff" style="fill: var(--color1, #fff)" opacity="0.2" d="M22.667 10.996h-13.333c-0.551 0-1.004-0.453-1.004-0.996 0-0.551 0.453-1.004 1.004-1.004h13.333c0.542 0 0.996 0.453 0.996 1.004 0 0.542-0.453 0.996-0.996 0.996z"></path>
<path fill="#fff" style="fill: var(--color1, #fff)" opacity="0.2" d="M22.667 16.996h-13.333c-0.551 0-1.004-0.453-1.004-0.996 0-0.551 0.453-1.004 1.004-1.004h13.333c0.542 0 0.996 0.453 0.996 1.004 0 0.542-0.453 0.996-0.996 0.996z"></path>
<path fill="#fff" style="fill: var(--color1, #fff)" opacity="0.2" d="M22.667 22.996h-13.333c-0.551 0-1.004-0.453-1.004-0.996 0-0.551 0.453-1.004 1.004-1.004h13.333c0.542 0 0.996 0.453 0.996 1.004 0 0.542-0.453 0.996-0.996 0.996z"></path>
</symbol>
<symbol id="moon" viewBox="0 0 32 32">
<path fill="#fff" style="fill: var(--color1, #fff)" d="M11.987 25.32c0 1.12 0.173 2.213 0.493 3.227-5.12-1.773-8.987-6.48-9.387-11.987-0.4-5.853 2.973-11.32 8.427-13.613 1.413-0.587 2.133-0.16 2.44 0.147 0.293 0.293 0.707 1 0.12 2.347-0.6 1.387-0.893 2.853-0.893 4.373 0.013 2.72 1.080 5.24 2.813 7.173-2.44 1.947-4.013 4.96-4.013 8.333z"></path>
<path fill="#fff" style="fill: var(--color1, #fff)" opacity="0.4" d="M28.28 23.613c-2.64 3.6-6.827 5.707-11.293 5.707-0.213 0-0.427-0.013-0.64-0.027-1.333-0.053-2.627-0.307-3.853-0.733-0.32-1.013-0.493-2.107-0.493-3.227 0-3.387 1.573-6.387 4.013-8.333 1.96 2.2 4.773 3.627 7.88 3.76 0.827 0.040 1.68-0.027 2.493-0.173 1.507-0.267 2.107 0.293 2.32 0.653 0.227 0.36 0.467 1.147-0.427 2.373z"></path>
</symbol>
<symbol id="sun" viewBox="0 0 32 32">
<path fill="#fff" style="fill: var(--color1, #fff)" opacity="0.6" d="M25.333 16c0 5.147-4.187 9.333-9.333 9.333-5.16 0-9.333-4.187-9.333-9.333 0-5.16 4.173-9.333 9.333-9.333 5.147 0 9.333 4.173 9.333 9.333z"></path>
<path fill="#fff" style="fill: var(--color1, #fff)" opacity="0.6" d="M16 30.613c-0.733 0-1.333-0.547-1.333-1.28v-0.107c0-0.733 0.6-1.333 1.333-1.333s1.333 0.6 1.333 1.333c0 0.733-0.6 1.387-1.333 1.387zM25.52 26.853c-0.36 0-0.693-0.133-0.947-0.387l-0.187-0.187c-0.507-0.507-0.507-1.347 0-1.867 0.52-0.52 1.36-0.52 1.88 0l0.187 0.173c0.52 0.52 0.52 1.347 0 1.88-0.253 0.253-0.587 0.387-0.933 0.387zM6.467 26.853c-0.347 0-0.68-0.133-0.933-0.387-0.52-0.533-0.52-1.36 0-1.88l0.173-0.173c0.52-0.52 1.36-0.52 1.867 0 0.52 0.52 0.52 1.36 0 1.867l-0.16 0.187c-0.253 0.253-0.613 0.387-0.947 0.387zM29.333 17.333h-0.107c-0.733 0-1.333-0.6-1.333-1.333s0.6-1.333 1.333-1.333c0.733 0 1.387 0.6 1.387 1.333s-0.547 1.333-1.28 1.333zM2.76 17.333h-0.093c-0.747 0-1.333-0.6-1.333-1.333s0.587-1.333 1.333-1.333c0.733 0 1.387 0.6 1.387 1.333s-0.547 1.333-1.293 1.333zM25.347 7.987c-0.347 0-0.68-0.133-0.96-0.387-0.507-0.52-0.507-1.373 0-1.893l0.187-0.16c0.507-0.52 1.36-0.52 1.88 0s0.52 1.347 0 1.88l-0.187 0.173c-0.24 0.253-0.573 0.387-0.92 0.387zM6.64 7.987c-0.347 0-0.68-0.133-0.933-0.387l-0.173-0.187c-0.52-0.52-0.52-1.373 0-1.893s1.36-0.52 1.88 0l0.16 0.187c0.52 0.52 0.52 1.36 0 1.88-0.24 0.267-0.6 0.4-0.933 0.4zM16 4.040c-0.733 0-1.333-0.533-1.333-1.267v-0.107c0-0.733 0.6-1.333 1.333-1.333s1.333 0.6 1.333 1.333c0 0.733-0.6 1.373-1.333 1.373z"></path>
</symbol>
</defs>
</svg>
