<svg width="16.000000" height="16.000000" viewBox="0 0 16 16" fill="none" xmlns="http://www.w3.org/2000/svg" xmlns:xlink="http://www.w3.org/1999/xlink">
	<desc>
			Created with Pixso.
	</desc>
	<defs/>
	<rect id="vuesax/bulk/call-calling" width="16.000000" height="16.000000" fill="#FFFFFF" fill-opacity="0"/>
	<path id="Vector" d="M11.74 7.16C11.46 7.16 11.23 6.93 11.23 6.65C11.23 6.4 10.98 5.89 10.57 5.44C10.16 5.01 9.72 4.75 9.34 4.75C9.06 4.75 8.83 4.52 8.83 4.24C8.83 3.96 9.06 3.73 9.34 3.73C10.01 3.73 10.71 4.09 11.32 4.73C11.9 5.34 12.26 6.09 12.26 6.64C12.26 6.93 12.03 7.16 11.74 7.16Z" fill="#FFFFFF" fill-opacity="1.000000" fill-rule="nonzero"/>
	<path id="Vector" d="M14.15 7.16C13.86 7.16 13.64 6.93 13.64 6.65C13.64 4.28 11.71 2.36 9.35 2.36C9.06 2.36 8.84 2.13 8.84 1.85C8.84 1.57 9.06 1.33 9.34 1.33C12.28 1.33 14.66 3.72 14.66 6.65C14.66 6.93 14.43 7.16 14.15 7.16Z" fill="#FFFFFF" fill-opacity="1.000000" fill-rule="nonzero"/>
	<g opacity="0.400000">
		<path id="Vector" d="M7.85 9.47L5.68 11.65C5.44 11.44 5.2 11.22 4.97 10.99C4.29 10.3 3.67 9.57 3.12 8.81C2.57 8.05 2.13 7.29 1.81 6.54C1.49 5.78 1.33 5.05 1.33 4.36C1.33 3.9 1.41 3.47 1.57 3.07C1.73 2.66 1.98 2.29 2.34 1.96C2.76 1.54 3.23 1.33 3.72 1.33C3.91 1.33 4.1 1.37 4.26 1.45C4.44 1.53 4.59 1.65 4.71 1.82L6.26 4C6.38 4.17 6.46 4.32 6.52 4.47C6.58 4.61 6.62 4.75 6.62 4.88C6.62 5.04 6.57 5.2 6.47 5.35C6.39 5.5 6.26 5.66 6.1 5.82L5.6 6.35C5.52 6.42 5.49 6.51 5.49 6.62C5.49 6.67 5.5 6.72 5.51 6.77C5.53 6.82 5.55 6.86 5.56 6.9C5.68 7.12 5.89 7.41 6.18 7.76C6.48 8.1 6.8 8.46 7.15 8.81C7.39 9.04 7.62 9.27 7.85 9.47Z" fill="#FFFFFF" fill-opacity="1.000000" fill-rule="nonzero"/>
	</g>
	<path id="Vector" d="M14.64 12.21C14.64 12.4 14.61 12.59 14.54 12.78C14.52 12.83 14.5 12.89 14.48 12.94C14.36 13.18 14.22 13.41 14.02 13.62C13.7 13.98 13.34 14.24 12.93 14.41C12.92 14.41 12.92 14.41 12.91 14.41C12.52 14.57 12.09 14.66 11.63 14.66C10.95 14.66 10.22 14.5 9.46 14.17C8.69 13.85 7.92 13.41 7.16 12.85C6.9 12.66 6.64 12.47 6.4 12.26L8.58 10.08C8.76 10.22 8.93 10.33 9.07 10.4C9.1 10.41 9.14 10.43 9.19 10.45C9.24 10.47 9.3 10.48 9.36 10.48C9.47 10.48 9.56 10.44 9.63 10.37L10.14 9.87C10.3 9.7 10.46 9.57 10.62 9.49C10.77 9.4 10.92 9.35 11.09 9.35C11.22 9.35 11.35 9.38 11.5 9.44C11.64 9.5 11.8 9.59 11.96 9.7L14.17 11.27C14.34 11.39 14.46 11.53 14.54 11.69C14.6 11.86 14.64 12.03 14.64 12.21Z" fill="#FFFFFF" fill-opacity="1.000000" fill-rule="nonzero"/>
	<g opacity="0.000000"/>
</svg>
