<svg width="24.000000" height="24.000000" viewBox="0 0 24 24" fill="none" xmlns="http://www.w3.org/2000/svg" xmlns:xlink="http://www.w3.org/1999/xlink">
	<desc>
			Created with Pixso.
	</desc>
	<defs/>
	<rect id="vuesax/bulk/moon" width="24.000000" height="24.000000" fill="#FFFFFF" fill-opacity="0"/>
	<path id="Vector" d="M8.99 18.99C8.99 19.83 9.12 20.65 9.36 21.41C5.52 20.08 2.62 16.55 2.32 12.42C2.02 8.03 4.55 3.93 8.64 2.21C9.7 1.77 10.24 2.09 10.47 2.32C10.69 2.54 11 3.07 10.56 4.08C10.11 5.12 9.89 6.22 9.89 7.36C9.9 9.4 10.7 11.29 12 12.74C10.17 14.2 8.99 16.46 8.99 18.99Z" fill="#FFFFFF" fill-opacity="1.000000" fill-rule="nonzero"/>
	<g opacity="0.400000">
		<path id="Vector" d="M21.21 17.71C19.23 20.41 16.09 21.99 12.74 21.99C12.58 21.99 12.42 21.98 12.26 21.97C11.26 21.93 10.29 21.74 9.37 21.42C9.13 20.66 9 19.84 9 19C9 16.46 10.18 14.21 12.01 12.75C13.48 14.4 15.59 15.47 17.92 15.57C18.54 15.6 19.18 15.55 19.79 15.44C20.92 15.24 21.37 15.66 21.53 15.93C21.7 16.2 21.88 16.79 21.21 17.71Z" fill="#FFFFFF" fill-opacity="1.000000" fill-rule="nonzero"/>
	</g>
	<g opacity="0.000000"/>
</svg>
