<svg width="64" height="64" viewBox="0 0 64 64" fill="none" xmlns="http://www.w3.org/2000/svg">
<g clip-path="url(#clip0_1_15349)">
<path d="M64 35.9356L47.5122 19.4486H36.8092V0.966797L20.3226 17.4534V34.9312H16.4844V17.4534L0 0.966797V41.799L9.61849 51.4179H20.3226V53.4123L29.9411 63.0308H47.5141L57.1334 53.4123V35.9356H64ZM36.8092 46.5471V42.8056L40.5511 46.5471H36.8092Z" fill="url(#paint0_linear_1_15349)"/>
<path d="M34.3828 33.5087H58.1395L46.5086 21.8781H34.3828V6.83008L22.7523 18.4606V25.3122L26.0927 28.6522H22.7523V37.3608H14.0599V18.4606L2.42969 6.83008V40.7945L10.6262 48.991H22.7523V52.4089L30.9488 60.6054H46.5086L54.7054 52.4089V35.4267H34.3828V33.5087ZM9.20376 40.7008L7.28465 38.7817V18.5539L9.20376 20.4731V40.7008ZM27.6088 20.4712L29.5279 18.5521V25.2185L27.6088 23.2994V20.4712ZM31.0425 26.7346H44.4969L46.416 28.6537H32.9604L31.0425 26.7346ZM29.5264 52.3152L27.6073 50.3961V44.1349H12.6378L10.7187 42.2158H27.6088V33.5087H29.5279L29.5264 52.3152ZM44.4969 55.7489H32.9604L31.0413 53.8298H46.4138L44.4969 55.7489ZM49.849 40.2831V50.3976L47.9299 52.3167V43.6243L44.5895 40.2839L49.849 40.2831ZM43.0756 45.6352V48.9752H34.3832V36.9428L43.0756 45.6352Z" fill="#010101"/>
<path d="M45.5019 24.3058H31.9538V12.6914L25.1797 19.4655V24.3058L31.9538 31.0798H52.2764L45.5019 24.3058Z" fill="#6EC6D9"/>
<path d="M45.5003 44.6284V51.4024H31.9521V31.0798H25.1781V39.7881H11.6295V19.4655L4.85547 12.6914V39.7881L11.6295 46.5622H25.1781V51.4024L31.9521 58.1765H45.5003L52.2747 51.4024V37.8543H38.7262L45.5003 44.6284Z" fill="#6EC6D9"/>
<path d="M45.5019 24.3058H31.9538V12.6914L25.1797 19.4655V24.3058L31.9538 31.0798H52.2764L45.5019 24.3058Z" fill="url(#paint1_linear_1_15349)"/>
<path d="M45.5003 44.6284V51.4024H31.9521V31.0798H25.1781V39.7881H11.6295V19.4655L4.85547 12.6914V39.7881L11.6295 46.5622H25.1781V51.4024L31.9521 58.1765H45.5003L52.2747 51.4024V37.8543H38.7262L45.5003 44.6284Z" fill="url(#paint2_linear_1_15349)"/>
</g>
<defs>
<linearGradient id="paint0_linear_1_15349" x1="-0.167076" y1="1.11995" x2="52.4391" y2="58.5163" gradientUnits="userSpaceOnUse">
<stop stop-color="#57C3E9"/>
<stop offset="0.25" stop-color="#0D71B9"/>
<stop offset="0.45" stop-color="#0E5596"/>
<stop offset="0.68" stop-color="#0E3B77"/>
<stop offset="0.87" stop-color="#0F2C63"/>
<stop offset="1" stop-color="#0F265C"/>
</linearGradient>
<linearGradient id="paint1_linear_1_15349" x1="6.4142" y1="11.2645" x2="47.6265" y2="56.2292" gradientUnits="userSpaceOnUse">
<stop stop-color="#57C3E9"/>
<stop offset="0.24" stop-color="#0D71B9"/>
<stop offset="0.28" stop-color="#0D6DB4"/>
<stop offset="0.77" stop-color="#0E3A75"/>
<stop offset="1" stop-color="#0F265C"/>
</linearGradient>
<linearGradient id="paint2_linear_1_15349" x1="6.41258" y1="11.2645" x2="47.6249" y2="56.2292" gradientUnits="userSpaceOnUse">
<stop stop-color="#57C3E9"/>
<stop offset="0.24" stop-color="#0D71B9"/>
<stop offset="0.28" stop-color="#0D6DB4"/>
<stop offset="0.77" stop-color="#0E3A75"/>
<stop offset="1" stop-color="#0F265C"/>
</linearGradient>
<clipPath id="clip0_1_15349">
<rect width="64" height="64" fill="white"/>
</clipPath>
</defs>
</svg>
